# xmcd
#
# Track frame offsets:
#	150
#	12075
#	23470
#	34332
#	46397
#	59452
#	71850
#	84732
#	96735
#	108802
#	121592
#	133347
#
# Disc length: 1966 seconds
#
# Revision: 3
# Processed by: cddbd v1.5.2PL0 Copyright (c) Steve Scherf et al.
# Submitted via: EZCDAudioConverter 3.1.7.1
#
DISCID=a207ac0c
DTITLE=Conway Twitty and Loretta Lynn - The Millennium Collection
DYEAR=2000
DGENRE=Country
TTITLE0=After The Fire Is Gone
TTITLE1=Louisiana Woman, Mississippi Man
TTITLE2=Lead Me On
TTITLE3=As Soon As I Hang Up The Phone
TTITLE4=Feelins'
TTITLE5=The Letter
TTITLE6=I Can't Love You Enough
TTITLE7=From Seven Till Ten
TTITLE8=You Know Just What I'd Do
TTITLE9=It's True Love
TTITLE10=Lovin' What Your Lovin' Does to Me
TTITLE11=I Still Believe In Waltzes
EXTD=
EXTT0=
EXTT1=
EXTT2=
EXTT3=
EXTT4=
EXTT5=
EXTT6=
EXTT7=
EXTT8=
EXTT9=
EXTT10=
EXTT11=
PLAYORDER=
